%FSLAX24Y24*%
%MOIN*%
G70*
G01*
G75*
G04 Layer_Physical_Order=1*
G04 Layer_Color=255*
%ADD10R,0.0669X0.0433*%
%ADD11R,0.0157X0.0276*%
%ADD12O,0.0236X0.0866*%
%ADD13R,0.0276X0.0157*%
%ADD14R,0.0512X0.0394*%
%ADD15R,0.0512X0.0236*%
%ADD16O,0.0669X0.0177*%
%ADD17R,0.1559X0.1559*%
%ADD18R,0.0433X0.0669*%
%ADD19C,0.0200*%
%ADD20C,0.0100*%
%ADD21C,0.0591*%
%ADD22R,0.0591X0.0591*%
%ADD23C,0.0965*%
%ADD24C,0.0290*%
G36*
X33050Y450D02*
X26750D01*
Y12000D01*
X33050D01*
Y450D01*
D02*
G37*
G36*
X6800Y475D02*
X500D01*
Y12025D01*
X6800D01*
Y475D01*
D02*
G37*
D10*
X19070Y3368D02*
D03*
Y4432D02*
D03*
D11*
X17640Y3047D02*
D03*
Y2693D02*
D03*
X21260Y6127D02*
D03*
Y5773D02*
D03*
X21630Y6036D02*
D03*
Y6390D02*
D03*
X20950Y5773D02*
D03*
Y6127D02*
D03*
X22260Y6387D02*
D03*
Y6033D02*
D03*
X21950Y6036D02*
D03*
Y6390D02*
D03*
X20070Y2040D02*
D03*
Y1686D02*
D03*
X20470Y2040D02*
D03*
Y1686D02*
D03*
X20870D02*
D03*
Y2040D02*
D03*
X14380Y3077D02*
D03*
Y2723D02*
D03*
Y2277D02*
D03*
Y1923D02*
D03*
X22380Y1696D02*
D03*
Y2050D02*
D03*
X22850Y1693D02*
D03*
Y2047D02*
D03*
X23410Y3713D02*
D03*
Y4067D02*
D03*
X19860Y5743D02*
D03*
Y6097D02*
D03*
X9810Y2286D02*
D03*
Y2640D02*
D03*
X9130Y2637D02*
D03*
Y2283D02*
D03*
D12*
X19870Y2945D02*
D03*
X20370D02*
D03*
X20870D02*
D03*
X21370D02*
D03*
X21870D02*
D03*
X22370D02*
D03*
X22870D02*
D03*
X19870Y4835D02*
D03*
X20370D02*
D03*
X20870D02*
D03*
X21370D02*
D03*
X21870D02*
D03*
X22370D02*
D03*
X22870D02*
D03*
D13*
X22703Y6890D02*
D03*
X23057D02*
D03*
X22703Y6590D02*
D03*
X23057D02*
D03*
Y6300D02*
D03*
X22703D02*
D03*
X13423Y1830D02*
D03*
X13777D02*
D03*
X13430Y1520D02*
D03*
X13784D02*
D03*
X14413Y1540D02*
D03*
X14767D02*
D03*
X16244Y1260D02*
D03*
X15890D02*
D03*
X16244Y1560D02*
D03*
X15890D02*
D03*
X22703Y6000D02*
D03*
X23057D02*
D03*
X20233Y6040D02*
D03*
X20587D02*
D03*
X11923Y1030D02*
D03*
X12277D02*
D03*
Y1400D02*
D03*
X11923D02*
D03*
X20587Y5740D02*
D03*
X20233D02*
D03*
X12420Y1770D02*
D03*
X12774D02*
D03*
X11559D02*
D03*
X11914D02*
D03*
X10706D02*
D03*
X11060D02*
D03*
D14*
X11317Y2995D02*
D03*
D15*
Y2326D02*
D03*
X12143D02*
D03*
Y3074D02*
D03*
D16*
X15213Y2854D02*
D03*
Y2598D02*
D03*
Y2342D02*
D03*
Y2086D02*
D03*
X16867Y2854D02*
D03*
Y2598D02*
D03*
Y2342D02*
D03*
Y2086D02*
D03*
D17*
X13730Y8460D02*
D03*
D18*
X22192Y8000D02*
D03*
X21128D02*
D03*
X16592Y3610D02*
D03*
X15529D02*
D03*
D19*
X22560Y9060D02*
Y9150D01*
X22192Y8691D02*
X22560Y9060D01*
X22192Y8000D02*
Y8691D01*
X20660Y9150D02*
X20700D01*
X21128Y8722D01*
Y8000D02*
Y8722D01*
X20660Y10150D02*
X22560D01*
X19574D02*
X20660D01*
X17884Y8460D02*
X19574Y10150D01*
X24800Y10750D02*
X25800D01*
X13750Y7200D02*
Y8440D01*
X13730Y8460D02*
X13750Y8440D01*
D20*
X6600Y650D02*
X7750D01*
X15220Y1540D02*
X15330Y1650D01*
X14767Y1540D02*
X15220D01*
X14380Y1573D02*
X14413Y1540D01*
X14380Y1573D02*
Y1923D01*
X22700Y6893D02*
X22703Y6890D01*
X22700Y6893D02*
Y7320D01*
X22870Y5370D02*
X23050Y5550D01*
X22870Y4835D02*
Y5370D01*
X14520Y3520D02*
X14910D01*
X14380Y3380D02*
X14520Y3520D01*
X14380Y3077D02*
Y3380D01*
X21114Y1686D02*
X21280Y1520D01*
X20870Y1686D02*
X21114D01*
X19600Y1520D02*
X19766Y1686D01*
X20070D01*
X17780Y1790D02*
X17790Y1780D01*
X17780Y1790D02*
Y2050D01*
X21974Y1696D02*
X22380D01*
X21890Y1780D02*
X21974Y1696D01*
X13160Y1520D02*
X13430D01*
X13100Y1580D02*
X13160Y1520D01*
X13100Y1580D02*
Y2010D01*
X12784Y2326D02*
X13100Y2010D01*
X12143Y2326D02*
X12784D01*
X12770Y1380D02*
X12774Y1384D01*
Y1770D01*
X13223Y2197D02*
X13423D01*
X12800Y2620D02*
X13223Y2197D01*
X14090Y1820D02*
X14193Y1923D01*
X14090Y1600D02*
Y1820D01*
X14010Y1520D02*
X14090Y1600D01*
X14692Y2598D02*
X15213D01*
X14570Y2720D02*
X14692Y2598D01*
X14383Y2720D02*
X14570D01*
X14380Y2723D02*
X14383Y2720D01*
X14782Y2342D02*
X15213D01*
X14670Y2230D02*
X14782Y2342D01*
X14670Y2070D02*
Y2230D01*
X14523Y1923D02*
X14670Y2070D01*
X14380Y1923D02*
X14523D01*
X13777Y2027D02*
X14027Y2277D01*
X14380D01*
Y2300D02*
Y2697D01*
X13777Y1830D02*
Y2027D01*
X14193Y1923D02*
X14380D01*
X13784Y1520D02*
X14010D01*
X13420Y2200D02*
X13423Y2197D01*
Y1830D02*
Y2197D01*
X13430Y1130D02*
Y1520D01*
X17488Y2342D02*
X17780Y2050D01*
X16867Y2342D02*
X17488D01*
X21900Y1690D02*
X21906Y1696D01*
X11611Y2620D02*
X12800D01*
X11317Y2326D02*
X11611Y2620D01*
X16893Y1597D02*
X17240Y1250D01*
X16867Y1597D02*
X16893D01*
X23710Y1540D02*
Y6005D01*
X23540Y1370D02*
X23710Y1540D01*
X22450Y1370D02*
X23540D01*
X22380Y1440D02*
X22450Y1370D01*
X22380Y1440D02*
Y1696D01*
X23370Y1680D02*
X23390Y1700D01*
X23150Y1680D02*
X23370D01*
X23070Y1760D02*
X23150Y1680D01*
X17640Y3047D02*
Y3570D01*
X19870Y2400D02*
Y2945D01*
X18190Y720D02*
X19870Y2400D01*
X12370Y720D02*
X18190D01*
X12277Y813D02*
X12370Y720D01*
X12277Y813D02*
Y1030D01*
Y1400D01*
X16867Y2598D02*
X17368D01*
X17463Y2693D01*
X17640D01*
X16867Y2854D02*
X17245D01*
X17411Y3020D01*
X17613D01*
X17640Y3047D01*
X16849Y2615D02*
X16867Y2598D01*
X15890Y1260D02*
Y1560D01*
X15213Y2086D02*
X15231Y2103D01*
X16382Y2755D02*
Y2953D01*
Y2755D02*
X16522Y2615D01*
X16849D01*
X20870Y2040D02*
Y2945D01*
X20470Y2040D02*
X20870D01*
X20070D02*
X20470D01*
X20070Y1686D02*
X20470D01*
X15330Y1650D02*
Y2004D01*
X15231Y2103D02*
X15330Y2004D01*
X16592Y3610D02*
Y4318D01*
X16560Y4350D02*
X16592Y4318D01*
X16382Y2953D02*
X16592Y3162D01*
Y3610D01*
X14910Y3520D02*
X15438D01*
X15529Y3610D01*
X16392Y2342D02*
X16867D01*
X16244Y2194D02*
X16392Y2342D01*
X16244Y1560D02*
Y2194D01*
X15213Y2854D02*
X15676D01*
X15890Y2640D01*
Y1560D02*
Y2640D01*
X16867Y1597D02*
Y2086D01*
X16530Y1260D02*
X16867Y1597D01*
X16244Y1260D02*
X16530D01*
X22370Y2945D02*
X22380Y2935D01*
X22370Y2060D02*
Y2945D01*
Y2060D02*
X22380Y2050D01*
X22383Y2047D02*
X22850D01*
X22380Y2050D02*
X22383Y2047D01*
X22850Y1693D02*
X23003D01*
X23070Y1760D01*
Y2290D01*
X22870Y2490D02*
X23070Y2290D01*
X22870Y2490D02*
Y2945D01*
X19070Y4432D02*
X19548D01*
X19740Y4240D01*
X21250D01*
X21370Y4360D01*
Y4835D01*
X22143Y3713D02*
X23410D01*
X21870Y2945D02*
Y3440D01*
X22613Y4067D02*
X23410D01*
X22370Y4310D02*
X22613Y4067D01*
X22370Y4310D02*
Y4835D01*
X21953Y6033D02*
X22260D01*
X21260Y6127D02*
X21267Y6120D01*
X20587Y5740D02*
Y6040D01*
X19863Y5740D02*
X20233D01*
X18462Y4432D02*
X19070D01*
X18460Y4430D02*
X18462Y4432D01*
X18451Y3368D02*
X19070D01*
X18450Y3370D02*
X18451Y3368D01*
X21950Y6390D02*
Y6800D01*
X23057Y6590D02*
Y6890D01*
Y6000D02*
Y6300D01*
X22703D02*
Y6590D01*
X22500Y6300D02*
X22703D01*
X22260Y6387D02*
X22413D01*
X22500Y6300D01*
X20950Y5773D02*
X21260D01*
X19860Y4845D02*
Y5743D01*
Y4845D02*
X19870Y4835D01*
X21870Y3440D02*
X22006Y3576D01*
X22143Y3713D01*
X22006Y3576D02*
Y3594D01*
X19070Y3368D02*
X19498D01*
X19970Y3840D01*
X21050D01*
X21370Y3520D01*
Y2945D02*
Y3520D01*
X19870Y2945D02*
Y3310D01*
X20110Y3550D01*
X20370Y2945D02*
Y3290D01*
X20110Y3550D02*
X20370Y3290D01*
X21630Y3550D02*
X21760D01*
X21870Y3440D01*
X20190Y6280D02*
Y6480D01*
Y6280D02*
X20260Y6210D01*
Y6067D02*
Y6210D01*
X20233Y6040D02*
X20260Y6067D01*
X20610Y6480D02*
X20840D01*
X20950Y6370D01*
Y6127D02*
Y6370D01*
X19860Y6097D02*
Y6590D01*
X20070Y6800D01*
X21060D01*
X21260Y6600D01*
Y6127D02*
Y6600D01*
X20587Y5617D02*
Y5740D01*
X20370Y5400D02*
X20587Y5617D01*
X20370Y4835D02*
Y5400D01*
X20950Y5460D02*
Y5773D01*
X20870Y5380D02*
X20950Y5460D01*
X20870Y4835D02*
Y5380D01*
X21630Y5550D02*
Y6036D01*
X21950Y5460D02*
Y6036D01*
X21870Y5380D02*
X21950Y5460D01*
X21870Y4835D02*
Y5380D01*
X22703Y5823D02*
Y6000D01*
X22370Y5490D02*
X22703Y5823D01*
X22370Y4835D02*
Y5490D01*
X23050Y5550D02*
Y5993D01*
X23057Y6000D01*
X11923Y1400D02*
Y1761D01*
X11914Y1770D02*
X11923Y1761D01*
X11690Y1030D02*
X11923D01*
X11560Y1160D02*
X11690Y1030D01*
X11560Y1160D02*
Y1769D01*
X11559Y1770D02*
X11560Y1769D01*
X11559Y1770D02*
Y1851D01*
X11317Y2093D02*
X11559Y1851D01*
X11317Y2093D02*
Y2326D01*
X11914Y1770D02*
Y1864D01*
X12143Y2093D01*
Y2326D01*
X11060Y1770D02*
X11559D01*
X11914D02*
X12420D01*
X10725Y2995D02*
X11317D01*
X10720Y3000D02*
X10725Y2995D01*
X12143Y3074D02*
Y3537D01*
X12140Y3540D02*
X12143Y3537D01*
X21060Y6800D02*
X21510D01*
X21630Y6680D01*
Y6390D02*
Y6680D01*
X23057Y6590D02*
X23125D01*
X23710Y6005D01*
X10710Y1774D02*
Y2160D01*
X10706Y1770D02*
X10710Y1774D01*
X9120Y1570D02*
X9130Y1580D01*
Y2283D01*
Y2637D02*
X9807D01*
X9810Y2640D01*
Y2286D02*
X10006D01*
X10720Y3000D01*
X7807Y5743D02*
X19860D01*
X7800Y5750D02*
X7807Y5743D01*
X24370Y2290D02*
Y9520D01*
X24600Y9750D01*
X25800D01*
Y650D02*
X26900D01*
D21*
X7800Y8750D02*
D03*
Y1750D02*
D03*
Y2750D02*
D03*
Y3750D02*
D03*
Y4750D02*
D03*
Y5750D02*
D03*
Y6750D02*
D03*
Y7750D02*
D03*
Y9750D02*
D03*
X20660Y9150D02*
D03*
X22560D02*
D03*
X25800Y8750D02*
D03*
Y1750D02*
D03*
Y2750D02*
D03*
Y3750D02*
D03*
Y4750D02*
D03*
Y5750D02*
D03*
Y6750D02*
D03*
Y7750D02*
D03*
Y9750D02*
D03*
D22*
X7800Y10750D02*
D03*
X20660Y10150D02*
D03*
X22560D02*
D03*
X25800Y10750D02*
D03*
D23*
X9576Y8460D02*
D03*
X17884D02*
D03*
D24*
X24800Y10750D02*
D03*
X9120Y1570D02*
D03*
X21890Y1780D02*
D03*
X19600Y1520D02*
D03*
X17640Y3570D02*
D03*
X17790Y1780D02*
D03*
X17240Y1250D02*
D03*
X23390Y1700D02*
D03*
X10720Y3000D02*
D03*
X12140Y3540D02*
D03*
X13430Y1130D02*
D03*
X21280Y1520D02*
D03*
X14910Y3520D02*
D03*
X15330Y1650D02*
D03*
X16560Y4350D02*
D03*
X13750Y7200D02*
D03*
X18450Y3370D02*
D03*
X18460Y4430D02*
D03*
X20610Y6480D02*
D03*
X21630Y5550D02*
D03*
Y3550D02*
D03*
X21950Y6800D02*
D03*
X20190Y6480D02*
D03*
X20110Y3550D02*
D03*
X23050Y5550D02*
D03*
X13420Y2200D02*
D03*
X24370Y2290D02*
D03*
X22700Y7320D02*
D03*
X10710Y2160D02*
D03*
X12770Y1380D02*
D03*
X7750Y650D02*
D03*
X25800D02*
D03*
M02*
