%FSLAX24Y24*%
%MOIN*%
G70*
G01*
G75*
%ADD10R,0.0669X0.0433*%
%ADD11R,0.0157X0.0276*%
%ADD12O,0.0236X0.0866*%
%ADD13R,0.0276X0.0157*%
%ADD14R,0.0512X0.0394*%
%ADD15R,0.0512X0.0236*%
%ADD16O,0.0669X0.0177*%
%ADD17R,0.1559X0.1559*%
%ADD18R,0.0433X0.0669*%
%ADD19C,0.0200*%
%ADD20C,0.0100*%
%ADD21C,0.0591*%
%ADD22R,0.0591X0.0591*%
%ADD23C,0.0965*%
%ADD24C,0.0290*%
%ADD25C,0.0098*%
%ADD26C,0.0236*%
%ADD27C,0.0079*%
%ADD28C,0.0050*%
%ADD29C,0.0059*%
%ADD30C,0.0070*%
%ADD31R,0.0749X0.0513*%
%ADD32R,0.0237X0.0356*%
%ADD33O,0.0316X0.0946*%
%ADD34R,0.0356X0.0237*%
%ADD35R,0.0592X0.0474*%
%ADD36R,0.0592X0.0316*%
%ADD37O,0.0749X0.0257*%
%ADD38R,0.1639X0.1639*%
%ADD39R,0.0513X0.0749*%
%ADD40C,0.0671*%
%ADD41R,0.0671X0.0671*%
%ADD42C,0.1045*%
%ADD43C,0.0370*%
%ADD44C,0.0340*%
%ADD45C,0.0067*%
D28*
X7623Y8750D02*
X7977D01*
X7800Y8573D02*
Y8927D01*
X7623Y1750D02*
X7977D01*
X7800Y1573D02*
Y1927D01*
X7623Y2750D02*
X7977D01*
X7800Y2573D02*
Y2927D01*
X7623Y3750D02*
X7977D01*
X7800Y3573D02*
Y3927D01*
X7623Y4750D02*
X7977D01*
X7800Y4573D02*
Y4927D01*
X7623Y5750D02*
X7977D01*
X7800Y5573D02*
Y5927D01*
X7623Y6750D02*
X7977D01*
X7800Y6573D02*
Y6927D01*
X7623Y7750D02*
X7977D01*
X7800Y7573D02*
Y7927D01*
X7623Y9750D02*
X7977D01*
X7800Y9573D02*
Y9927D01*
X7623Y10750D02*
X7977D01*
X7800Y10573D02*
Y10927D01*
X9212Y8460D02*
X9941D01*
X9576Y8096D02*
Y8824D01*
X17519Y8460D02*
X18248D01*
X17884Y8096D02*
Y8824D01*
X20483Y9150D02*
X20837D01*
X20660Y8973D02*
Y9327D01*
X20483Y10150D02*
X20837D01*
X20660Y9973D02*
Y10327D01*
X22383Y10150D02*
X22737D01*
X22560Y9973D02*
Y10327D01*
X22383Y9150D02*
X22737D01*
X22560Y8973D02*
Y9327D01*
X25623Y8750D02*
X25977D01*
X25800Y8573D02*
Y8927D01*
X25623Y1750D02*
X25977D01*
X25800Y1573D02*
Y1927D01*
X25623Y2750D02*
X25977D01*
X25800Y2573D02*
Y2927D01*
X25623Y3750D02*
X25977D01*
X25800Y3573D02*
Y3927D01*
X25623Y4750D02*
X25977D01*
X25800Y4573D02*
Y4927D01*
X25623Y5750D02*
X25977D01*
X25800Y5573D02*
Y5927D01*
X25623Y6750D02*
X25977D01*
X25800Y6573D02*
Y6927D01*
X25623Y7750D02*
X25977D01*
X25800Y7573D02*
Y7927D01*
X25623Y9750D02*
X25977D01*
X25800Y9573D02*
Y9927D01*
X25623Y10750D02*
X25977D01*
X25800Y10573D02*
Y10927D01*
X24725Y10750D02*
X24875D01*
X24800Y10675D02*
Y10825D01*
X9045Y1570D02*
X9195D01*
X9120Y1495D02*
Y1645D01*
X21815Y1780D02*
X21965D01*
X21890Y1705D02*
Y1855D01*
X19525Y1520D02*
X19675D01*
X19600Y1445D02*
Y1595D01*
X17565Y3570D02*
X17715D01*
X17640Y3495D02*
Y3645D01*
X17715Y1780D02*
X17865D01*
X17790Y1705D02*
Y1855D01*
X17165Y1250D02*
X17315D01*
X17240Y1175D02*
Y1325D01*
X23315Y1700D02*
X23465D01*
X23390Y1625D02*
Y1775D01*
X10645Y3000D02*
X10795D01*
X10720Y2925D02*
Y3075D01*
X12065Y3540D02*
X12215D01*
X12140Y3465D02*
Y3615D01*
X13355Y1130D02*
X13505D01*
X13430Y1055D02*
Y1205D01*
X21205Y1520D02*
X21355D01*
X21280Y1445D02*
Y1595D01*
X14835Y3520D02*
X14985D01*
X14910Y3445D02*
Y3595D01*
X15255Y1650D02*
X15405D01*
X15330Y1575D02*
Y1725D01*
X16485Y4350D02*
X16635D01*
X16560Y4275D02*
Y4425D01*
X13675Y7200D02*
X13825D01*
X13750Y7125D02*
Y7275D01*
X18375Y3370D02*
X18525D01*
X18450Y3295D02*
Y3445D01*
X18385Y4430D02*
X18535D01*
X18460Y4355D02*
Y4505D01*
X20535Y6480D02*
X20685D01*
X20610Y6405D02*
Y6555D01*
X21555Y5550D02*
X21705D01*
X21630Y5475D02*
Y5625D01*
X21555Y3550D02*
X21705D01*
X21630Y3475D02*
Y3625D01*
X21875Y6800D02*
X22025D01*
X21950Y6725D02*
Y6875D01*
X20115Y6480D02*
X20265D01*
X20190Y6405D02*
Y6555D01*
X20035Y3550D02*
X20185D01*
X20110Y3475D02*
Y3625D01*
X22975Y5550D02*
X23125D01*
X23050Y5475D02*
Y5625D01*
X13345Y2200D02*
X13495D01*
X13420Y2125D02*
Y2275D01*
X24295Y2290D02*
X24445D01*
X24370Y2215D02*
Y2365D01*
X22625Y7320D02*
X22775D01*
X22700Y7245D02*
Y7395D01*
X10635Y2160D02*
X10785D01*
X10710Y2085D02*
Y2235D01*
X12695Y1380D02*
X12845D01*
X12770Y1305D02*
Y1455D01*
X7675Y650D02*
X7825D01*
X7750Y575D02*
Y725D01*
X25725Y650D02*
X25875D01*
X25800Y575D02*
Y725D01*
M02*
