%FSLAX24Y24*%
%MOIN*%
G70*
G01*
G75*
G04 Layer_Physical_Order=4*
G04 Layer_Color=16711680*
%ADD10R,0.0669X0.0433*%
%ADD11R,0.0157X0.0276*%
%ADD12O,0.0236X0.0866*%
%ADD13R,0.0276X0.0157*%
%ADD14R,0.0512X0.0394*%
%ADD15R,0.0512X0.0236*%
%ADD16O,0.0669X0.0177*%
%ADD17R,0.1559X0.1559*%
%ADD18R,0.0433X0.0669*%
%ADD19C,0.0200*%
%ADD20C,0.0100*%
%ADD21C,0.0591*%
%ADD22R,0.0591X0.0591*%
%ADD23C,0.0965*%
%ADD24C,0.0290*%
D20*
X17790Y1780D02*
X21890D01*
X13980Y2290D02*
X24370D01*
X13590Y2680D02*
X13980Y2290D01*
X13220Y2680D02*
X13590D01*
X12700Y2160D02*
X13220Y2680D01*
X10710Y2160D02*
X12700D01*
X13530Y2490D02*
X13975Y2045D01*
X13310Y2490D02*
X13530D01*
X13150Y2330D02*
X13310Y2490D01*
X13150Y1760D02*
Y2330D01*
X12770Y1380D02*
X13150Y1760D01*
X13420Y2200D02*
X13720Y1900D01*
Y830D02*
Y1900D01*
X13420Y1120D02*
X13430Y1130D01*
X13420Y840D02*
Y1120D01*
X13210Y630D02*
X13420Y840D01*
X13975Y2045D02*
X24471D01*
X13720Y830D02*
X13920Y630D01*
X22940Y1250D02*
X23390Y1700D01*
X17240Y1250D02*
X22940D01*
X23960Y3270D02*
X24260Y3570D01*
X19860Y3270D02*
X23960D01*
X19515Y3615D02*
X19860Y3270D01*
X17685Y3615D02*
X19515D01*
X17640Y3570D02*
X17685Y3615D01*
X20110Y3550D02*
X21630D01*
X20190Y4850D02*
Y6480D01*
X20100Y4760D02*
X20190Y4850D01*
X20100Y3560D02*
Y4760D01*
Y3560D02*
X20110Y3550D01*
X21630Y5550D02*
X23050D01*
X24471Y2045D02*
X24615Y2189D01*
Y2205D01*
X24730Y2320D01*
Y5730D01*
X24750Y5750D01*
X25800D01*
X24260Y3570D02*
Y8560D01*
X24450Y8750D01*
X25800D01*
X7750Y650D02*
X7770Y630D01*
X13210D01*
X25780D02*
X25800Y650D01*
X13920Y630D02*
X25780D01*
D21*
X7800Y8750D02*
D03*
Y1750D02*
D03*
Y2750D02*
D03*
Y3750D02*
D03*
Y4750D02*
D03*
Y5750D02*
D03*
Y6750D02*
D03*
Y7750D02*
D03*
Y9750D02*
D03*
X20660Y9150D02*
D03*
X22560D02*
D03*
X25800Y8750D02*
D03*
Y1750D02*
D03*
Y2750D02*
D03*
Y3750D02*
D03*
Y4750D02*
D03*
Y5750D02*
D03*
Y6750D02*
D03*
Y7750D02*
D03*
Y9750D02*
D03*
D22*
X7800Y10750D02*
D03*
X20660Y10150D02*
D03*
X22560D02*
D03*
X25800Y10750D02*
D03*
D23*
X9576Y8460D02*
D03*
X17884D02*
D03*
D24*
X24800Y10750D02*
D03*
X9120Y1570D02*
D03*
X21890Y1780D02*
D03*
X19600Y1520D02*
D03*
X17640Y3570D02*
D03*
X17790Y1780D02*
D03*
X17240Y1250D02*
D03*
X23390Y1700D02*
D03*
X10720Y3000D02*
D03*
X12140Y3540D02*
D03*
X13430Y1130D02*
D03*
X21280Y1520D02*
D03*
X14910Y3520D02*
D03*
X15330Y1650D02*
D03*
X16560Y4350D02*
D03*
X13750Y7200D02*
D03*
X18450Y3370D02*
D03*
X18460Y4430D02*
D03*
X20610Y6480D02*
D03*
X21630Y5550D02*
D03*
Y3550D02*
D03*
X21950Y6800D02*
D03*
X20190Y6480D02*
D03*
X20110Y3550D02*
D03*
X23050Y5550D02*
D03*
X13420Y2200D02*
D03*
X24370Y2290D02*
D03*
X22700Y7320D02*
D03*
X10710Y2160D02*
D03*
X12770Y1380D02*
D03*
X7750Y650D02*
D03*
X25800D02*
D03*
M02*
