%FSLAX24Y24*%
%MOIN*%
G70*
G01*
G75*
G04 Layer_Color=65535*
%ADD10R,0.0669X0.0433*%
%ADD11R,0.0157X0.0276*%
%ADD12O,0.0236X0.0866*%
%ADD13R,0.0276X0.0157*%
%ADD14R,0.0512X0.0394*%
%ADD15R,0.0512X0.0236*%
%ADD16O,0.0669X0.0177*%
%ADD17R,0.1559X0.1559*%
%ADD18R,0.0433X0.0669*%
%ADD19C,0.0200*%
%ADD20C,0.0100*%
%ADD21C,0.0591*%
%ADD22R,0.0591X0.0591*%
%ADD23C,0.0965*%
%ADD24C,0.0290*%
%ADD25C,0.0098*%
%ADD26C,0.0236*%
%ADD27C,0.0079*%
%ADD28C,0.0050*%
%ADD29C,0.0059*%
%ADD30C,0.0070*%
D25*
X19585Y2945D02*
G03*
X19585Y2945I-49J0D01*
G01*
X11248Y3409D02*
G03*
X11248Y3409I-49J0D01*
G01*
X15262Y3159D02*
G03*
X15262Y3159I-49J0D01*
G01*
D26*
X20150Y3929D02*
G03*
X20150Y3929I-118J0D01*
G01*
D27*
X15092Y7279D02*
G03*
X16210Y7297I559J0D01*
G01*
X11250D02*
G03*
X12368Y7279I559J-18D01*
G01*
X8300Y1250D02*
Y10500D01*
Y11250D01*
X7300D02*
X8300D01*
X7300Y1250D02*
Y11250D01*
Y1250D02*
X8300D01*
X18775Y3743D02*
Y4057D01*
X19365Y3743D02*
Y4057D01*
X19638Y3536D02*
X23102D01*
X19638Y4244D02*
X23102D01*
X19638Y3536D02*
Y4244D01*
X23102Y3536D02*
Y4244D01*
X11651Y3291D02*
X11809D01*
X11651Y2109D02*
X11809D01*
X15705Y1860D02*
Y3080D01*
X16375Y1860D02*
Y3080D01*
X15705D02*
X16375D01*
X15705Y1860D02*
X16375D01*
X13730Y4759D02*
Y6295D01*
X12962Y5527D02*
X14498D01*
X15092Y7751D02*
X16210D01*
X15092Y7279D02*
Y10271D01*
X17884Y9100D02*
Y12121D01*
X9576D02*
X17884D01*
X9576Y9100D02*
Y12121D01*
X17884Y6255D02*
Y7820D01*
X9576Y6255D02*
Y7820D01*
X11880Y4287D02*
X15580D01*
X9576Y6255D02*
X11880Y4287D01*
X15580D02*
X17884Y6255D01*
X16210Y7279D02*
Y10271D01*
X15289Y10212D02*
X16013D01*
X11447D02*
X12171D01*
X11250Y7279D02*
Y10271D01*
X12368Y7279D02*
Y10271D01*
X11250Y7751D02*
X12368D01*
X21503Y7705D02*
X21817D01*
X21503Y8295D02*
X21817D01*
X21160Y8650D02*
Y10650D01*
X20160D02*
X21160D01*
X20160Y8650D02*
Y10650D01*
Y8650D02*
X21160D01*
X22060D02*
X23060D01*
X22060D02*
Y10650D01*
X23060D01*
Y8650D02*
Y10650D01*
X15903Y3315D02*
X16217D01*
X15903Y3905D02*
X16217D01*
X26300Y1250D02*
Y10500D01*
Y11250D01*
X25300D02*
X26300D01*
X25300Y1250D02*
Y11250D01*
Y1250D02*
X26300D01*
D28*
X21642Y9467D02*
X21600Y9425D01*
Y9342D01*
X21642Y9300D01*
X21683D01*
X21725Y9342D01*
Y9425D01*
X21767Y9467D01*
X21808D01*
X21850Y9425D01*
Y9342D01*
X21808Y9300D01*
X21600Y9550D02*
X21850D01*
X21767Y9633D01*
X21850Y9717D01*
X21600D01*
X21850Y9800D02*
Y9883D01*
Y9841D01*
X21600D01*
X21642Y9800D01*
X17920Y3170D02*
X18170D01*
Y3045D01*
X18128Y3003D01*
X18045D01*
X18003Y3045D01*
Y3170D01*
Y3087D02*
X17920Y3003D01*
Y2753D02*
Y2920D01*
X18087Y2753D01*
X18128D01*
X18170Y2795D01*
Y2878D01*
X18128Y2920D01*
X17920Y2504D02*
Y2670D01*
X18087Y2504D01*
X18128D01*
X18170Y2545D01*
Y2629D01*
X18128Y2670D01*
X11620Y560D02*
Y810D01*
X11745D01*
X11787Y768D01*
Y685D01*
X11745Y643D01*
X11620D01*
X11703D02*
X11787Y560D01*
X12037D02*
X11870D01*
X12037Y727D01*
Y768D01*
X11995Y810D01*
X11912D01*
X11870Y768D01*
X12120Y560D02*
X12203D01*
X12161D01*
Y810D01*
X12120Y768D01*
X10910Y900D02*
Y1150D01*
X11035D01*
X11077Y1108D01*
Y1025D01*
X11035Y983D01*
X10910D01*
X10993D02*
X11077Y900D01*
X11327D02*
X11160D01*
X11327Y1067D01*
Y1108D01*
X11285Y1150D01*
X11202D01*
X11160Y1108D01*
X11410D02*
X11451Y1150D01*
X11535D01*
X11576Y1108D01*
Y942D01*
X11535Y900D01*
X11451D01*
X11410Y942D01*
Y1108D01*
X13660Y1040D02*
Y1290D01*
X13785D01*
X13827Y1248D01*
Y1165D01*
X13785Y1123D01*
X13660D01*
X13743D02*
X13827Y1040D01*
X13910D02*
X13993D01*
X13952D01*
Y1290D01*
X13910Y1248D01*
X14118Y1082D02*
X14160Y1040D01*
X14243D01*
X14285Y1082D01*
Y1248D01*
X14243Y1290D01*
X14160D01*
X14118Y1248D01*
Y1207D01*
X14160Y1165D01*
X14285D01*
X13580Y3000D02*
X13830D01*
Y2875D01*
X13788Y2833D01*
X13705D01*
X13663Y2875D01*
Y3000D01*
Y2917D02*
X13580Y2833D01*
Y2750D02*
Y2667D01*
Y2708D01*
X13830D01*
X13788Y2750D01*
Y2542D02*
X13830Y2500D01*
Y2417D01*
X13788Y2375D01*
X13747D01*
X13705Y2417D01*
X13663Y2375D01*
X13622D01*
X13580Y2417D01*
Y2500D01*
X13622Y2542D01*
X13663D01*
X13705Y2500D01*
X13747Y2542D01*
X13788D01*
X13705Y2500D02*
Y2417D01*
X23350Y6930D02*
Y7180D01*
X23475D01*
X23517Y7138D01*
Y7055D01*
X23475Y7013D01*
X23350D01*
X23433D02*
X23517Y6930D01*
X23600D02*
X23683D01*
X23642D01*
Y7180D01*
X23600Y7138D01*
X23808Y7180D02*
X23975D01*
Y7138D01*
X23808Y6972D01*
Y6930D01*
X19990Y7070D02*
Y7320D01*
X20115D01*
X20157Y7278D01*
Y7195D01*
X20115Y7153D01*
X19990D01*
X20073D02*
X20157Y7070D01*
X20240D02*
X20323D01*
X20282D01*
Y7320D01*
X20240Y7278D01*
X20615Y7320D02*
X20531Y7278D01*
X20448Y7195D01*
Y7112D01*
X20490Y7070D01*
X20573D01*
X20615Y7112D01*
Y7153D01*
X20573Y7195D01*
X20448D01*
X20620Y780D02*
X20370D01*
Y905D01*
X20412Y947D01*
X20495D01*
X20537Y905D01*
Y780D01*
Y863D02*
X20620Y947D01*
Y1030D02*
Y1113D01*
Y1072D01*
X20370D01*
X20412Y1030D01*
X20370Y1405D02*
Y1238D01*
X20495D01*
X20453Y1321D01*
Y1363D01*
X20495Y1405D01*
X20578D01*
X20620Y1363D01*
Y1280D01*
X20578Y1238D01*
X21020Y780D02*
X20770D01*
Y905D01*
X20812Y947D01*
X20895D01*
X20937Y905D01*
Y780D01*
Y863D02*
X21020Y947D01*
Y1030D02*
Y1113D01*
Y1072D01*
X20770D01*
X20812Y1030D01*
X21020Y1363D02*
X20770D01*
X20895Y1238D01*
Y1405D01*
X23550Y4330D02*
X23300D01*
Y4455D01*
X23342Y4497D01*
X23425D01*
X23467Y4455D01*
Y4330D01*
Y4413D02*
X23550Y4497D01*
Y4580D02*
Y4663D01*
Y4622D01*
X23300D01*
X23342Y4580D01*
Y4788D02*
X23300Y4830D01*
Y4913D01*
X23342Y4955D01*
X23383D01*
X23425Y4913D01*
Y4871D01*
Y4913D01*
X23467Y4955D01*
X23508D01*
X23550Y4913D01*
Y4830D01*
X23508Y4788D01*
X22440Y6690D02*
X22190D01*
Y6815D01*
X22232Y6857D01*
X22315D01*
X22357Y6815D01*
Y6690D01*
Y6773D02*
X22440Y6857D01*
Y6940D02*
Y7023D01*
Y6982D01*
X22190D01*
X22232Y6940D01*
X22440Y7315D02*
Y7148D01*
X22273Y7315D01*
X22232D01*
X22190Y7273D01*
Y7190D01*
X22232Y7148D01*
X23400Y6520D02*
Y6770D01*
X23525D01*
X23567Y6728D01*
Y6645D01*
X23525Y6603D01*
X23400D01*
X23483D02*
X23567Y6520D01*
X23650D02*
X23733D01*
X23692D01*
Y6770D01*
X23650Y6728D01*
X23858Y6520D02*
X23941D01*
X23900D01*
Y6770D01*
X23858Y6728D01*
X22180Y920D02*
X21930D01*
Y1045D01*
X21972Y1087D01*
X22055D01*
X22097Y1045D01*
Y920D01*
Y1003D02*
X22180Y1087D01*
Y1170D02*
Y1253D01*
Y1212D01*
X21930D01*
X21972Y1170D01*
Y1378D02*
X21930Y1420D01*
Y1503D01*
X21972Y1545D01*
X22138D01*
X22180Y1503D01*
Y1420D01*
X22138Y1378D01*
X21972D01*
X16510Y1470D02*
Y1720D01*
X16635D01*
X16677Y1678D01*
Y1595D01*
X16635Y1553D01*
X16510D01*
X16593D02*
X16677Y1470D01*
X16760Y1512D02*
X16802Y1470D01*
X16885D01*
X16927Y1512D01*
Y1678D01*
X16885Y1720D01*
X16802D01*
X16760Y1678D01*
Y1637D01*
X16802Y1595D01*
X16927D01*
X16530Y1120D02*
Y1370D01*
X16655D01*
X16697Y1328D01*
Y1245D01*
X16655Y1203D01*
X16530D01*
X16613D02*
X16697Y1120D01*
X16780Y1328D02*
X16822Y1370D01*
X16905D01*
X16947Y1328D01*
Y1287D01*
X16905Y1245D01*
X16947Y1203D01*
Y1162D01*
X16905Y1120D01*
X16822D01*
X16780Y1162D01*
Y1203D01*
X16822Y1245D01*
X16780Y1287D01*
Y1328D01*
X16822Y1245D02*
X16905D01*
X20140Y6720D02*
Y6970D01*
X20265D01*
X20307Y6928D01*
Y6845D01*
X20265Y6803D01*
X20140D01*
X20223D02*
X20307Y6720D01*
X20390Y6970D02*
X20557D01*
Y6928D01*
X20390Y6762D01*
Y6720D01*
X21360Y6670D02*
X21110D01*
Y6795D01*
X21152Y6837D01*
X21235D01*
X21277Y6795D01*
Y6670D01*
Y6753D02*
X21360Y6837D01*
X21110Y7087D02*
X21152Y7003D01*
X21235Y6920D01*
X21318D01*
X21360Y6962D01*
Y7045D01*
X21318Y7087D01*
X21277D01*
X21235Y7045D01*
Y6920D01*
X21730Y6660D02*
X21480D01*
Y6785D01*
X21522Y6827D01*
X21605D01*
X21647Y6785D01*
Y6660D01*
Y6743D02*
X21730Y6827D01*
X21480Y7077D02*
Y6910D01*
X21605D01*
X21563Y6993D01*
Y7035D01*
X21605Y7077D01*
X21688D01*
X21730Y7035D01*
Y6952D01*
X21688Y6910D01*
X23380Y5760D02*
Y6010D01*
X23505D01*
X23547Y5968D01*
Y5885D01*
X23505Y5843D01*
X23380D01*
X23463D02*
X23547Y5760D01*
X23755D02*
Y6010D01*
X23630Y5885D01*
X23797D01*
X12640Y2040D02*
Y2290D01*
X12765D01*
X12807Y2248D01*
Y2165D01*
X12765Y2123D01*
X12640D01*
X12723D02*
X12807Y2040D01*
X12890Y2248D02*
X12932Y2290D01*
X13015D01*
X13057Y2248D01*
Y2207D01*
X13015Y2165D01*
X12973D01*
X13015D01*
X13057Y2123D01*
Y2082D01*
X13015Y2040D01*
X12932D01*
X12890Y2082D01*
X11030Y1300D02*
Y1550D01*
X11155D01*
X11197Y1508D01*
Y1425D01*
X11155Y1383D01*
X11030D01*
X11113D02*
X11197Y1300D01*
X11447D02*
X11280D01*
X11447Y1467D01*
Y1508D01*
X11405Y1550D01*
X11322D01*
X11280Y1508D01*
X10410Y1340D02*
Y1590D01*
X10535D01*
X10577Y1548D01*
Y1465D01*
X10535Y1423D01*
X10410D01*
X10493D02*
X10577Y1340D01*
X10660D02*
X10743D01*
X10702D01*
Y1590D01*
X10660Y1548D01*
X17490Y2330D02*
X17573D01*
X17532D01*
Y2080D01*
X17490D01*
X17573D01*
X17865Y2288D02*
X17823Y2330D01*
X17740D01*
X17698Y2288D01*
Y2122D01*
X17740Y2080D01*
X17823D01*
X17865Y2122D01*
X18115Y2080D02*
X17948D01*
X18115Y2247D01*
Y2288D01*
X18073Y2330D01*
X17990D01*
X17948Y2288D01*
X18830Y3000D02*
X18913D01*
X18872D01*
Y2750D01*
X18830D01*
X18913D01*
X19205Y2958D02*
X19163Y3000D01*
X19080D01*
X19038Y2958D01*
Y2792D01*
X19080Y2750D01*
X19163D01*
X19205Y2792D01*
X19288Y2750D02*
X19371D01*
X19330D01*
Y3000D01*
X19288Y2958D01*
X25550Y11650D02*
Y11400D01*
Y11525D01*
X25717D01*
Y11650D01*
Y11400D01*
X25967D02*
X25800D01*
X25967Y11567D01*
Y11608D01*
X25925Y11650D01*
X25842D01*
X25800Y11608D01*
X7600Y11650D02*
Y11400D01*
Y11525D01*
X7767D01*
Y11650D01*
Y11400D01*
X7850D02*
X7933D01*
X7892D01*
Y11650D01*
X7850Y11608D01*
X19700Y9417D02*
Y9250D01*
X19950D01*
Y9417D01*
X19825Y9250D02*
Y9333D01*
X19700Y9500D02*
X19950Y9667D01*
X19700D02*
X19950Y9500D01*
X19700Y9750D02*
Y9916D01*
Y9833D01*
X19950D01*
X10497Y3600D02*
X10330D01*
Y3350D01*
X10497D01*
X10330Y3475D02*
X10413D01*
X10747Y3558D02*
X10705Y3600D01*
X10622D01*
X10580Y3558D01*
Y3517D01*
X10622Y3475D01*
X10705D01*
X10747Y3433D01*
Y3392D01*
X10705Y3350D01*
X10622D01*
X10580Y3392D01*
X10830Y3600D02*
Y3350D01*
X10955D01*
X10996Y3392D01*
Y3558D01*
X10955Y3600D01*
X10830D01*
X18897Y5028D02*
X18855Y5070D01*
X18772D01*
X18730Y5028D01*
Y4862D01*
X18772Y4820D01*
X18855D01*
X18897Y4862D01*
X18980Y4820D02*
X19063D01*
X19022D01*
Y5070D01*
X18980Y5028D01*
X19313Y4820D02*
Y5070D01*
X19188Y4945D01*
X19355D01*
X20822Y6827D02*
X20780Y6785D01*
Y6702D01*
X20822Y6660D01*
X20988D01*
X21030Y6702D01*
Y6785D01*
X20988Y6827D01*
X21030Y6910D02*
Y6993D01*
Y6952D01*
X20780D01*
X20822Y6910D01*
Y7118D02*
X20780Y7160D01*
Y7243D01*
X20822Y7285D01*
X20863D01*
X20905Y7243D01*
Y7201D01*
Y7243D01*
X20947Y7285D01*
X20988D01*
X21030Y7243D01*
Y7160D01*
X20988Y7118D01*
X19442Y5787D02*
X19400Y5745D01*
Y5662D01*
X19442Y5620D01*
X19608D01*
X19650Y5662D01*
Y5745D01*
X19608Y5787D01*
X19650Y5870D02*
Y5953D01*
Y5912D01*
X19400D01*
X19442Y5870D01*
X19650Y6245D02*
Y6078D01*
X19483Y6245D01*
X19442D01*
X19400Y6203D01*
Y6120D01*
X19442Y6078D01*
X19962Y1007D02*
X19920Y965D01*
Y882D01*
X19962Y840D01*
X20128D01*
X20170Y882D01*
Y965D01*
X20128Y1007D01*
X20170Y1090D02*
Y1173D01*
Y1132D01*
X19920D01*
X19962Y1090D01*
X20170Y1298D02*
Y1382D01*
Y1340D01*
X19920D01*
X19962Y1298D01*
X23537Y6378D02*
X23495Y6420D01*
X23412D01*
X23370Y6378D01*
Y6212D01*
X23412Y6170D01*
X23495D01*
X23537Y6212D01*
X23620Y6378D02*
X23662Y6420D01*
X23745D01*
X23787Y6378D01*
Y6337D01*
X23745Y6295D01*
X23787Y6253D01*
Y6212D01*
X23745Y6170D01*
X23662D01*
X23620Y6212D01*
Y6253D01*
X23662Y6295D01*
X23620Y6337D01*
Y6378D01*
X23662Y6295D02*
X23745D01*
X22792Y1127D02*
X22750Y1085D01*
Y1002D01*
X22792Y960D01*
X22958D01*
X23000Y1002D01*
Y1085D01*
X22958Y1127D01*
X22750Y1210D02*
Y1377D01*
X22792D01*
X22958Y1210D01*
X23000D01*
X17158Y3643D02*
X17200Y3685D01*
Y3768D01*
X17158Y3810D01*
X16992D01*
X16950Y3768D01*
Y3685D01*
X16992Y3643D01*
X17200Y3393D02*
X17158Y3477D01*
X17075Y3560D01*
X16992D01*
X16950Y3518D01*
Y3435D01*
X16992Y3393D01*
X17033D01*
X17075Y3435D01*
Y3560D01*
X20512Y7917D02*
X20470Y7875D01*
Y7792D01*
X20512Y7750D01*
X20678D01*
X20720Y7792D01*
Y7875D01*
X20678Y7917D01*
X20470Y8167D02*
Y8000D01*
X20595D01*
X20553Y8083D01*
Y8125D01*
X20595Y8167D01*
X20678D01*
X20720Y8125D01*
Y8042D01*
X20678Y8000D01*
X14737Y1268D02*
X14695Y1310D01*
X14612D01*
X14570Y1268D01*
Y1102D01*
X14612Y1060D01*
X14695D01*
X14737Y1102D01*
X14945Y1060D02*
Y1310D01*
X14820Y1185D01*
X14987D01*
X14398Y3673D02*
X14440Y3715D01*
Y3798D01*
X14398Y3840D01*
X14232D01*
X14190Y3798D01*
Y3715D01*
X14232Y3673D01*
X14398Y3590D02*
X14440Y3548D01*
Y3465D01*
X14398Y3423D01*
X14357D01*
X14315Y3465D01*
Y3507D01*
Y3465D01*
X14273Y3423D01*
X14232D01*
X14190Y3465D01*
Y3548D01*
X14232Y3590D01*
X14168Y2713D02*
X14210Y2755D01*
Y2838D01*
X14168Y2880D01*
X14002D01*
X13960Y2838D01*
Y2755D01*
X14002Y2713D01*
X13960Y2463D02*
Y2630D01*
X14127Y2463D01*
X14168D01*
X14210Y2505D01*
Y2588D01*
X14168Y2630D01*
X21872Y7227D02*
X21830Y7185D01*
Y7102D01*
X21872Y7060D01*
X22038D01*
X22080Y7102D01*
Y7185D01*
X22038Y7227D01*
X22080Y7310D02*
Y7393D01*
Y7352D01*
X21830D01*
X21872Y7310D01*
X9800Y5050D02*
Y4800D01*
X9925D01*
X9967Y4842D01*
Y4883D01*
X9925Y4925D01*
X9800D01*
X9925D01*
X9967Y4967D01*
Y5008D01*
X9925Y5050D01*
X9800D01*
X10050Y4800D02*
Y4967D01*
X10133Y5050D01*
X10217Y4967D01*
Y4800D01*
Y4925D01*
X10050D01*
X10300Y5050D02*
X10466D01*
X10383D01*
Y4800D01*
X10550Y5050D02*
X10716D01*
X10633D01*
Y4800D01*
X9380Y2120D02*
X9630D01*
Y2287D01*
X9380Y2537D02*
Y2370D01*
X9630D01*
Y2537D01*
X9505Y2370D02*
Y2453D01*
X9380Y2620D02*
X9630D01*
Y2745D01*
X9588Y2786D01*
X9422D01*
X9380Y2745D01*
Y2620D01*
X8910Y2120D02*
X8660D01*
Y2245D01*
X8702Y2287D01*
X8785D01*
X8827Y2245D01*
Y2120D01*
Y2203D02*
X8910Y2287D01*
Y2537D02*
Y2370D01*
X8743Y2537D01*
X8702D01*
X8660Y2495D01*
Y2412D01*
X8702Y2370D01*
Y2620D02*
X8660Y2661D01*
Y2745D01*
X8702Y2786D01*
X8743D01*
X8785Y2745D01*
Y2703D01*
Y2745D01*
X8827Y2786D01*
X8868D01*
X8910Y2745D01*
Y2661D01*
X8868Y2620D01*
D29*
X20659Y11095D02*
Y10793D01*
X20810Y10944D02*
X20508D01*
D30*
X21650Y11650D02*
X21550D01*
X21600D01*
Y11400D01*
X21550Y11350D01*
X21500D01*
X21450Y11400D01*
X21800Y11550D02*
X21900D01*
X21950Y11500D01*
Y11350D01*
X21800D01*
X21750Y11400D01*
X21800Y11450D01*
X21950D01*
X22050Y11350D02*
Y11550D01*
X22200D01*
X22250Y11500D01*
Y11350D01*
X22850D02*
X22650D01*
X22850Y11550D01*
Y11600D01*
X22800Y11650D01*
X22700D01*
X22650Y11600D01*
X22950D02*
X22999Y11650D01*
X23099D01*
X23149Y11600D01*
Y11400D01*
X23099Y11350D01*
X22999D01*
X22950Y11400D01*
Y11600D01*
X23249Y11350D02*
X23349D01*
X23299D01*
Y11650D01*
X23249Y11600D01*
X23499Y11650D02*
X23699D01*
Y11600D01*
X23499Y11400D01*
Y11350D01*
M02*
