%FSLAX24Y24*%
%MOIN*%
G70*
G01*
G75*
G04 Layer_Physical_Order=2*
G04 Layer_Color=36540*
%ADD10R,0.0669X0.0433*%
%ADD11R,0.0157X0.0276*%
%ADD12O,0.0236X0.0866*%
%ADD13R,0.0276X0.0157*%
%ADD14R,0.0512X0.0394*%
%ADD15R,0.0512X0.0236*%
%ADD16O,0.0669X0.0177*%
%ADD17R,0.1559X0.1559*%
%ADD18R,0.0433X0.0669*%
%ADD19C,0.0200*%
%ADD20C,0.0100*%
%ADD21C,0.0591*%
%ADD22R,0.0591X0.0591*%
%ADD23C,0.0965*%
%ADD24C,0.0290*%
G36*
X25250Y500D02*
X8250D01*
Y12000D01*
X25250D01*
Y500D01*
D02*
G37*
%LPC*%
G36*
X10909Y2950D02*
X10770D01*
Y2811D01*
X10796Y2816D01*
X10861Y2859D01*
X10904Y2924D01*
X10909Y2950D01*
D02*
G37*
G36*
X10670Y3189D02*
X10644Y3184D01*
X10579Y3141D01*
X10536Y3076D01*
X10531Y3050D01*
X10670D01*
Y3189D01*
D02*
G37*
G36*
X10770D02*
Y3050D01*
X10909D01*
X10904Y3076D01*
X10861Y3141D01*
X10796Y3184D01*
X10770Y3189D01*
D02*
G37*
G36*
X10670Y2950D02*
X10531D01*
X10536Y2924D01*
X10579Y2859D01*
X10644Y2816D01*
X10670Y2811D01*
Y2950D01*
D02*
G37*
G36*
X10710Y2359D02*
X10634Y2344D01*
X10569Y2301D01*
X10526Y2236D01*
X10511Y2160D01*
X10526Y2084D01*
X10569Y2019D01*
X10634Y1976D01*
X10710Y1961D01*
X10786Y1976D01*
X10851Y2019D01*
X10894Y2084D01*
X10909Y2160D01*
X10894Y2236D01*
X10851Y2301D01*
X10786Y2344D01*
X10710Y2359D01*
D02*
G37*
G36*
X13420Y2399D02*
X13344Y2384D01*
X13279Y2341D01*
X13236Y2276D01*
X13221Y2200D01*
X13236Y2124D01*
X13279Y2059D01*
X13344Y2016D01*
X13420Y2001D01*
X13496Y2016D01*
X13561Y2059D01*
X13604Y2124D01*
X13619Y2200D01*
X13604Y2276D01*
X13561Y2341D01*
X13496Y2384D01*
X13420Y2399D01*
D02*
G37*
G36*
X24370Y2489D02*
X24294Y2474D01*
X24229Y2431D01*
X24186Y2366D01*
X24171Y2290D01*
X24186Y2214D01*
X24229Y2149D01*
X24294Y2106D01*
X24370Y2091D01*
X24446Y2106D01*
X24511Y2149D01*
X24554Y2214D01*
X24569Y2290D01*
X24554Y2366D01*
X24511Y2431D01*
X24446Y2474D01*
X24370Y2489D01*
D02*
G37*
G36*
X18450Y3569D02*
X18374Y3554D01*
X18309Y3511D01*
X18266Y3446D01*
X18251Y3370D01*
X18266Y3294D01*
X18309Y3229D01*
X18374Y3186D01*
X18450Y3171D01*
X18526Y3186D01*
X18591Y3229D01*
X18634Y3294D01*
X18649Y3370D01*
X18634Y3446D01*
X18591Y3511D01*
X18526Y3554D01*
X18450Y3569D01*
D02*
G37*
G36*
X21630Y3749D02*
X21554Y3734D01*
X21489Y3691D01*
X21446Y3626D01*
X21431Y3550D01*
X21446Y3474D01*
X21489Y3409D01*
X21554Y3366D01*
X21630Y3351D01*
X21706Y3366D01*
X21771Y3409D01*
X21814Y3474D01*
X21829Y3550D01*
X21814Y3626D01*
X21771Y3691D01*
X21706Y3734D01*
X21630Y3749D01*
D02*
G37*
G36*
X17640Y3769D02*
X17564Y3754D01*
X17499Y3711D01*
X17456Y3646D01*
X17441Y3570D01*
X17456Y3494D01*
X17499Y3429D01*
X17564Y3386D01*
X17640Y3371D01*
X17716Y3386D01*
X17781Y3429D01*
X17824Y3494D01*
X17839Y3570D01*
X17824Y3646D01*
X17781Y3711D01*
X17716Y3754D01*
X17640Y3769D01*
D02*
G37*
G36*
X14860Y3709D02*
X14834Y3704D01*
X14769Y3661D01*
X14726Y3596D01*
X14721Y3570D01*
X14860D01*
Y3709D01*
D02*
G37*
G36*
X20110Y3749D02*
X20034Y3734D01*
X19969Y3691D01*
X19926Y3626D01*
X19911Y3550D01*
X19926Y3474D01*
X19969Y3409D01*
X20034Y3366D01*
X20110Y3351D01*
X20186Y3366D01*
X20251Y3409D01*
X20294Y3474D01*
X20309Y3550D01*
X20294Y3626D01*
X20251Y3691D01*
X20186Y3734D01*
X20110Y3749D01*
D02*
G37*
G36*
X14860Y3470D02*
X14721D01*
X14726Y3444D01*
X14769Y3379D01*
X14834Y3336D01*
X14860Y3331D01*
Y3470D01*
D02*
G37*
G36*
X15099D02*
X14960D01*
Y3331D01*
X14986Y3336D01*
X15051Y3379D01*
X15094Y3444D01*
X15099Y3470D01*
D02*
G37*
G36*
X12140Y3739D02*
X12064Y3724D01*
X11999Y3681D01*
X11956Y3616D01*
X11941Y3540D01*
X11956Y3464D01*
X11999Y3399D01*
X12064Y3356D01*
X12140Y3341D01*
X12216Y3356D01*
X12281Y3399D01*
X12324Y3464D01*
X12339Y3540D01*
X12324Y3616D01*
X12281Y3681D01*
X12216Y3724D01*
X12140Y3739D01*
D02*
G37*
G36*
X15380Y1839D02*
Y1700D01*
X15519D01*
X15514Y1726D01*
X15471Y1791D01*
X15406Y1834D01*
X15380Y1839D01*
D02*
G37*
G36*
X19550Y1470D02*
X19411D01*
X19416Y1444D01*
X19459Y1379D01*
X19524Y1336D01*
X19550Y1331D01*
Y1470D01*
D02*
G37*
G36*
X19789D02*
X19650D01*
Y1331D01*
X19676Y1336D01*
X19741Y1379D01*
X19784Y1444D01*
X19789Y1470D01*
D02*
G37*
G36*
X9120Y1769D02*
X9044Y1754D01*
X8979Y1711D01*
X8936Y1646D01*
X8921Y1570D01*
X8936Y1494D01*
X8979Y1429D01*
X9044Y1386D01*
X9120Y1371D01*
X9196Y1386D01*
X9261Y1429D01*
X9304Y1494D01*
X9319Y1570D01*
X9304Y1646D01*
X9261Y1711D01*
X9196Y1754D01*
X9120Y1769D01*
D02*
G37*
G36*
X21280Y1719D02*
X21204Y1704D01*
X21139Y1661D01*
X21096Y1596D01*
X21081Y1520D01*
X21096Y1444D01*
X21139Y1379D01*
X21204Y1336D01*
X21280Y1321D01*
X21356Y1336D01*
X21421Y1379D01*
X21464Y1444D01*
X21479Y1520D01*
X21464Y1596D01*
X21421Y1661D01*
X21356Y1704D01*
X21280Y1719D01*
D02*
G37*
G36*
X13430Y1329D02*
X13354Y1314D01*
X13289Y1271D01*
X13246Y1206D01*
X13231Y1130D01*
X13246Y1054D01*
X13289Y989D01*
X13354Y946D01*
X13430Y931D01*
X13506Y946D01*
X13571Y989D01*
X13614Y1054D01*
X13629Y1130D01*
X13614Y1206D01*
X13571Y1271D01*
X13506Y1314D01*
X13430Y1329D01*
D02*
G37*
G36*
X17240Y1449D02*
X17164Y1434D01*
X17099Y1391D01*
X17056Y1326D01*
X17041Y1250D01*
X17056Y1174D01*
X17099Y1109D01*
X17164Y1066D01*
X17240Y1051D01*
X17316Y1066D01*
X17381Y1109D01*
X17424Y1174D01*
X17439Y1250D01*
X17424Y1326D01*
X17381Y1391D01*
X17316Y1434D01*
X17240Y1449D01*
D02*
G37*
G36*
X12770Y1579D02*
X12694Y1564D01*
X12629Y1521D01*
X12586Y1456D01*
X12571Y1380D01*
X12586Y1304D01*
X12629Y1239D01*
X12694Y1196D01*
X12770Y1181D01*
X12846Y1196D01*
X12911Y1239D01*
X12954Y1304D01*
X12969Y1380D01*
X12954Y1456D01*
X12911Y1521D01*
X12846Y1564D01*
X12770Y1579D01*
D02*
G37*
G36*
X15280Y1600D02*
X15141D01*
X15146Y1574D01*
X15189Y1509D01*
X15254Y1466D01*
X15280Y1461D01*
Y1600D01*
D02*
G37*
G36*
X17790Y1979D02*
X17714Y1964D01*
X17649Y1921D01*
X17606Y1856D01*
X17591Y1780D01*
X17606Y1704D01*
X17649Y1639D01*
X17714Y1596D01*
X17790Y1581D01*
X17866Y1596D01*
X17931Y1639D01*
X17974Y1704D01*
X17989Y1780D01*
X17974Y1856D01*
X17931Y1921D01*
X17866Y1964D01*
X17790Y1979D01*
D02*
G37*
G36*
X21890D02*
X21814Y1964D01*
X21749Y1921D01*
X21706Y1856D01*
X21691Y1780D01*
X21706Y1704D01*
X21749Y1639D01*
X21814Y1596D01*
X21890Y1581D01*
X21966Y1596D01*
X22031Y1639D01*
X22074Y1704D01*
X22089Y1780D01*
X22074Y1856D01*
X22031Y1921D01*
X21966Y1964D01*
X21890Y1979D01*
D02*
G37*
G36*
X15280Y1839D02*
X15254Y1834D01*
X15189Y1791D01*
X15146Y1726D01*
X15141Y1700D01*
X15280D01*
Y1839D01*
D02*
G37*
G36*
X19650Y1709D02*
Y1570D01*
X19789D01*
X19784Y1596D01*
X19741Y1661D01*
X19676Y1704D01*
X19650Y1709D01*
D02*
G37*
G36*
X15519Y1600D02*
X15380D01*
Y1461D01*
X15406Y1466D01*
X15471Y1509D01*
X15514Y1574D01*
X15519Y1600D01*
D02*
G37*
G36*
X23390Y1899D02*
X23314Y1884D01*
X23249Y1841D01*
X23206Y1776D01*
X23191Y1700D01*
X23206Y1624D01*
X23249Y1559D01*
X23314Y1516D01*
X23390Y1501D01*
X23466Y1516D01*
X23531Y1559D01*
X23574Y1624D01*
X23589Y1700D01*
X23574Y1776D01*
X23531Y1841D01*
X23466Y1884D01*
X23390Y1899D01*
D02*
G37*
G36*
X19550Y1709D02*
X19524Y1704D01*
X19459Y1661D01*
X19416Y1596D01*
X19411Y1570D01*
X19550D01*
Y1709D01*
D02*
G37*
G36*
X14960Y3709D02*
Y3570D01*
X15099D01*
X15094Y3596D01*
X15051Y3661D01*
X14986Y3704D01*
X14960Y3709D01*
D02*
G37*
G36*
X22560Y9498D02*
X22470Y9486D01*
X22386Y9452D01*
X22314Y9396D01*
X22258Y9324D01*
X22224Y9240D01*
X22212Y9150D01*
X22224Y9060D01*
X22258Y8976D01*
X22314Y8904D01*
X22386Y8848D01*
X22470Y8814D01*
X22560Y8802D01*
X22650Y8814D01*
X22734Y8848D01*
X22806Y8904D01*
X22862Y8976D01*
X22896Y9060D01*
X22908Y9150D01*
X22896Y9240D01*
X22862Y9324D01*
X22806Y9396D01*
X22734Y9452D01*
X22650Y9486D01*
X22560Y9498D01*
D02*
G37*
G36*
X17884Y8997D02*
X17745Y8979D01*
X17615Y8925D01*
X17504Y8840D01*
X17419Y8728D01*
X17365Y8599D01*
X17347Y8460D01*
X17365Y8321D01*
X17419Y8192D01*
X17504Y8080D01*
X17615Y7995D01*
X17745Y7941D01*
X17884Y7923D01*
X18022Y7941D01*
X18152Y7995D01*
X18263Y8080D01*
X18348Y8192D01*
X18402Y8321D01*
X18420Y8460D01*
X18402Y8599D01*
X18348Y8728D01*
X18263Y8840D01*
X18152Y8925D01*
X18022Y8979D01*
X17884Y8997D01*
D02*
G37*
G36*
X21002Y9100D02*
X20710D01*
Y8808D01*
X20750Y8814D01*
X20834Y8848D01*
X20906Y8904D01*
X20962Y8976D01*
X20996Y9060D01*
X21002Y9100D01*
D02*
G37*
G36*
X20610D02*
X20318D01*
X20324Y9060D01*
X20358Y8976D01*
X20414Y8904D01*
X20486Y8848D01*
X20570Y8814D01*
X20610Y8808D01*
Y9100D01*
D02*
G37*
G36*
X13700Y7389D02*
X13674Y7384D01*
X13609Y7341D01*
X13566Y7276D01*
X13561Y7250D01*
X13700D01*
Y7389D01*
D02*
G37*
G36*
X22700Y7519D02*
X22624Y7504D01*
X22559Y7461D01*
X22516Y7396D01*
X22501Y7320D01*
X22516Y7244D01*
X22559Y7179D01*
X22624Y7136D01*
X22700Y7121D01*
X22776Y7136D01*
X22841Y7179D01*
X22884Y7244D01*
X22899Y7320D01*
X22884Y7396D01*
X22841Y7461D01*
X22776Y7504D01*
X22700Y7519D01*
D02*
G37*
G36*
X9576Y8997D02*
X9438Y8979D01*
X9308Y8925D01*
X9197Y8840D01*
X9112Y8728D01*
X9058Y8599D01*
X9040Y8460D01*
X9058Y8321D01*
X9112Y8192D01*
X9197Y8080D01*
X9308Y7995D01*
X9438Y7941D01*
X9576Y7923D01*
X9715Y7941D01*
X9845Y7995D01*
X9956Y8080D01*
X10041Y8192D01*
X10095Y8321D01*
X10113Y8460D01*
X10095Y8599D01*
X10041Y8728D01*
X9956Y8840D01*
X9845Y8925D01*
X9715Y8979D01*
X9576Y8997D01*
D02*
G37*
G36*
X13800Y7389D02*
Y7250D01*
X13939D01*
X13934Y7276D01*
X13891Y7341D01*
X13826Y7384D01*
X13800Y7389D01*
D02*
G37*
G36*
X24989Y10700D02*
X24850D01*
Y10561D01*
X24876Y10566D01*
X24941Y10609D01*
X24984Y10674D01*
X24989Y10700D01*
D02*
G37*
G36*
X24750D02*
X24611D01*
X24616Y10674D01*
X24659Y10609D01*
X24724Y10566D01*
X24750Y10561D01*
Y10700D01*
D02*
G37*
G36*
X24850Y10939D02*
Y10800D01*
X24989D01*
X24984Y10826D01*
X24941Y10891D01*
X24876Y10934D01*
X24850Y10939D01*
D02*
G37*
G36*
X24750D02*
X24724Y10934D01*
X24659Y10891D01*
X24616Y10826D01*
X24611Y10800D01*
X24750D01*
Y10939D01*
D02*
G37*
G36*
X20710Y9492D02*
Y9200D01*
X21002D01*
X20996Y9240D01*
X20962Y9324D01*
X20906Y9396D01*
X20834Y9452D01*
X20750Y9486D01*
X20710Y9492D01*
D02*
G37*
G36*
X20610D02*
X20570Y9486D01*
X20486Y9452D01*
X20414Y9396D01*
X20358Y9324D01*
X20324Y9240D01*
X20318Y9200D01*
X20610D01*
Y9492D01*
D02*
G37*
G36*
X22905Y10495D02*
X22215D01*
Y9805D01*
X22905D01*
Y10495D01*
D02*
G37*
G36*
X21005D02*
X20315D01*
Y9805D01*
X21005D01*
Y10495D01*
D02*
G37*
G36*
X21630Y5749D02*
X21554Y5734D01*
X21489Y5691D01*
X21446Y5626D01*
X21431Y5550D01*
X21446Y5474D01*
X21489Y5409D01*
X21554Y5366D01*
X21630Y5351D01*
X21706Y5366D01*
X21771Y5409D01*
X21814Y5474D01*
X21829Y5550D01*
X21814Y5626D01*
X21771Y5691D01*
X21706Y5734D01*
X21630Y5749D01*
D02*
G37*
G36*
X18510Y4619D02*
Y4480D01*
X18649D01*
X18644Y4506D01*
X18601Y4571D01*
X18536Y4614D01*
X18510Y4619D01*
D02*
G37*
G36*
X20190Y6679D02*
X20114Y6664D01*
X20049Y6621D01*
X20006Y6556D01*
X19991Y6480D01*
X20006Y6404D01*
X20049Y6339D01*
X20114Y6296D01*
X20190Y6281D01*
X20266Y6296D01*
X20331Y6339D01*
X20374Y6404D01*
X20375Y6411D01*
X20425D01*
X20426Y6404D01*
X20469Y6339D01*
X20534Y6296D01*
X20560Y6291D01*
Y6480D01*
Y6669D01*
X20534Y6664D01*
X20469Y6621D01*
X20426Y6556D01*
X20425Y6549D01*
X20375D01*
X20374Y6556D01*
X20331Y6621D01*
X20266Y6664D01*
X20190Y6679D01*
D02*
G37*
G36*
X23050Y5749D02*
X22974Y5734D01*
X22909Y5691D01*
X22866Y5626D01*
X22851Y5550D01*
X22866Y5474D01*
X22909Y5409D01*
X22974Y5366D01*
X23050Y5351D01*
X23126Y5366D01*
X23191Y5409D01*
X23234Y5474D01*
X23249Y5550D01*
X23234Y5626D01*
X23191Y5691D01*
X23126Y5734D01*
X23050Y5749D01*
D02*
G37*
G36*
X18410Y4380D02*
X18271D01*
X18276Y4354D01*
X18319Y4289D01*
X18384Y4246D01*
X18410Y4241D01*
Y4380D01*
D02*
G37*
G36*
X16560Y4549D02*
X16484Y4534D01*
X16419Y4491D01*
X16376Y4426D01*
X16361Y4350D01*
X16376Y4274D01*
X16419Y4209D01*
X16484Y4166D01*
X16560Y4151D01*
X16636Y4166D01*
X16701Y4209D01*
X16744Y4274D01*
X16759Y4350D01*
X16744Y4426D01*
X16701Y4491D01*
X16636Y4534D01*
X16560Y4549D01*
D02*
G37*
G36*
X18410Y4619D02*
X18384Y4614D01*
X18319Y4571D01*
X18276Y4506D01*
X18271Y4480D01*
X18410D01*
Y4619D01*
D02*
G37*
G36*
X18649Y4380D02*
X18510D01*
Y4241D01*
X18536Y4246D01*
X18601Y4289D01*
X18644Y4354D01*
X18649Y4380D01*
D02*
G37*
G36*
X22000Y6989D02*
Y6850D01*
X22139D01*
X22134Y6876D01*
X22091Y6941D01*
X22026Y6984D01*
X22000Y6989D01*
D02*
G37*
G36*
X21900D02*
X21874Y6984D01*
X21809Y6941D01*
X21766Y6876D01*
X21761Y6850D01*
X21900D01*
Y6989D01*
D02*
G37*
G36*
X13939Y7150D02*
X13800D01*
Y7011D01*
X13826Y7016D01*
X13891Y7059D01*
X13934Y7124D01*
X13939Y7150D01*
D02*
G37*
G36*
X13700D02*
X13561D01*
X13566Y7124D01*
X13609Y7059D01*
X13674Y7016D01*
X13700Y7011D01*
Y7150D01*
D02*
G37*
G36*
X20660Y6669D02*
Y6530D01*
X20799D01*
X20794Y6556D01*
X20751Y6621D01*
X20686Y6664D01*
X20660Y6669D01*
D02*
G37*
G36*
X20799Y6430D02*
X20660D01*
Y6291D01*
X20686Y6296D01*
X20751Y6339D01*
X20794Y6404D01*
X20799Y6430D01*
D02*
G37*
G36*
X22139Y6750D02*
X22000D01*
Y6611D01*
X22026Y6616D01*
X22091Y6659D01*
X22134Y6724D01*
X22139Y6750D01*
D02*
G37*
G36*
X21900D02*
X21761D01*
X21766Y6724D01*
X21809Y6659D01*
X21874Y6616D01*
X21900Y6611D01*
Y6750D01*
D02*
G37*
%LPD*%
D21*
X20660Y9150D02*
D03*
D24*
X24800Y10750D02*
D03*
X19600Y1520D02*
D03*
X10720Y3000D02*
D03*
X14910Y3520D02*
D03*
X15330Y1650D02*
D03*
X13750Y7200D02*
D03*
X18460Y4430D02*
D03*
X20610Y6480D02*
D03*
X21950Y6800D02*
D03*
M02*
